<svg width="212" height="31" viewBox="0 0 212 31" fill="none" xmlns="http://www.w3.org/2000/svg">
<path d="M27.46 24V21.401C27.8127 21.424 28.1117 21.3933 28.357 21.309C28.6023 21.2247 28.8093 21.0713 28.978 20.849C29.1543 20.619 29.3077 20.3047 29.438 19.906C29.5683 19.4997 29.691 18.9937 29.806 18.388C29.99 17.4297 30.1433 16.4215 30.266 15.3635C30.3963 14.2978 30.5037 13.2552 30.588 12.2355C30.6723 11.2158 30.7375 10.2882 30.7835 9.4525C30.8295 8.60917 30.864 7.93833 30.887 7.44H42.18V24H39.052V10.361H33.762C33.7313 10.7903 33.6892 11.35 33.6355 12.04C33.5895 12.73 33.5243 13.4928 33.44 14.3285C33.3557 15.1642 33.2522 16.0305 33.1295 16.9275C33.0068 17.8245 32.8573 18.6947 32.681 19.538C32.52 20.3583 32.3245 21.0867 32.0945 21.723C31.8645 22.3517 31.5578 22.8692 31.1745 23.2755C30.7988 23.6742 30.312 23.9387 29.714 24.069C29.116 24.1993 28.3647 24.1763 27.46 24ZM45.4108 24V7.44H56.2208V10.361H48.5388V13.903H54.8408V16.824H48.5388V21.079H56.2208V24H45.4108ZM58.9772 24V7.44H65.6012C66.7819 7.44 67.7364 7.67767 68.4647 8.153C69.193 8.62067 69.7259 9.211 70.0632 9.924C70.4005 10.637 70.5692 11.3577 70.5692 12.086C70.5692 13.0137 70.3584 13.7842 69.9367 14.3975C69.5227 15.0108 68.9515 15.421 68.2232 15.628V15.053C69.2582 15.2677 70.0325 15.7468 70.5462 16.4905C71.0675 17.2342 71.3282 18.066 71.3282 18.986C71.3282 19.975 71.1442 20.8452 70.7762 21.5965C70.4159 22.3478 69.8639 22.9382 69.1202 23.3675C68.3765 23.7892 67.4412 24 66.3142 24H58.9772ZM62.1512 21.056H65.9922C66.4139 21.056 66.7895 20.9678 67.1192 20.7915C67.4489 20.6075 67.7057 20.3545 67.8897 20.0325C68.0814 19.7028 68.1772 19.3157 68.1772 18.871C68.1772 18.48 68.0967 18.1312 67.9357 17.8245C67.7747 17.5178 67.5294 17.2763 67.1997 17.1C66.8777 16.916 66.4752 16.824 65.9922 16.824H62.1512V21.056ZM62.1512 13.903H65.5552C65.9079 13.903 66.2222 13.8417 66.4982 13.719C66.7742 13.5963 66.9927 13.4085 67.1537 13.1555C67.3147 12.8948 67.3952 12.5613 67.3952 12.155C67.3952 11.649 67.238 11.2235 66.9237 10.8785C66.6094 10.5335 66.1532 10.361 65.5552 10.361H62.1512V13.903ZM87.1687 24H83.9947V12.96L76.7957 24H73.6217V7.44H76.7957V18.48L83.9947 7.44H87.1687V24ZM94.9821 24V7.44H98.1101V14.248H105.516V7.44H108.644V24H105.516V17.169H98.1101V24H94.9821ZM110.723 24L115.783 7.44H120.452L125.512 24H122.292L117.784 9.395H118.382L113.943 24H110.723ZM113.759 20.55V17.629H122.499V20.55H113.759ZM131.257 26.76V21.079C131.756 21.079 132.177 20.9563 132.522 20.711C132.875 20.458 133.163 20.1053 133.385 19.653C133.607 19.193 133.784 18.6563 133.914 18.043C134.044 17.4297 134.14 16.7627 134.201 16.042C134.278 15.122 134.347 14.2173 134.408 13.328C134.47 12.431 134.531 11.5033 134.592 10.545C134.654 9.579 134.723 8.53633 134.799 7.417L145.793 7.44V21.079H147.058V26.76H143.93V24H134.385V26.76H131.257ZM135.926 21.079H142.665V10.361L137.651 10.338C137.598 11.097 137.552 11.7947 137.513 12.431C137.483 13.0673 137.444 13.7113 137.398 14.363C137.352 15.0147 137.291 15.743 137.214 16.548C137.138 17.353 137.061 18.0162 136.984 18.5375C136.908 19.0512 136.789 19.4997 136.628 19.883C136.475 20.2663 136.241 20.665 135.926 21.079ZM148.205 24L154.07 15.605L148.642 7.44H152.345L157.037 14.846V7.44H160.165V14.846L164.857 7.44H168.56L163.132 15.605L168.997 24H165.156L160.165 16.686V24H157.037V16.686L152.046 24H148.205ZM184.38 24H181.206V12.96L174.007 24H170.833V7.44H174.007V18.48L181.206 7.44H184.38V24ZM187.589 24V7.44H201.251V24H198.123V10.361H190.717V24H187.589ZM204.709 24V7.44H207.837V24H204.709Z" fill="#31353B"/>
<rect y="7" width="23" height="8" fill="#449EF0"/>
<rect y="15" width="23" height="8" fill="#FFE000"/>
</svg>
